# xmcd CD database file
#
# Track frame offsets:
#	150
#	14138
#	28821
#	43254
#	58057
#	72628
#	86056
#	99731
#	114382
#	125341
#	138411
#	151090
#	163553
#	178392
#	191480
#	205402
#	219977
#	234262
#	248692
#	262624
#
# Disc length: 3693 seconds
#
# Revision: 1
# Processed by: cddbd v1.5.2PL0 Copyright (c) Steve Scherf et al.
# Submitted via: CDex 1.70beta2
#
DISCID=200e6b14
DTITLE=Billie Holiday - 40 suosikkia cd2
DYEAR=1900
DGENRE=Jazz
TTITLE0=All Of Me
TTITLE1=Easy Living
TTITLE2=Gloomy Sunday
TTITLE3=Pennies From Heaven
TTITLE4=Solitude
TTITLE5=That Ole Devil Called Love
TTITLE6=(There Is) No Greater Love
TTITLE7=What Is This Thing Called Love
TTITLE8=When a Woman Loves a Man
TTITLE9=When You're Smiling
TTITLE10=Big Stuff
TTITLE11=You Better Go Now
TTITLE12=I'll Look Around
TTITLE13=Guilty
TTITLE14=The Blues Are Brewin'
TTITLE15=Baby I Don't Cry Over You
TTITLE16=No Good Man
TTITLE17=Deep Song
TTITLE18=The Man I Love
TTITLE19=Easy To Love
EXTD=
EXTT0=
EXTT1=
EXTT2=
EXTT3=
EXTT4=
EXTT5=
EXTT6=
EXTT7=
EXTT8=
EXTT9=
EXTT10=
EXTT11=
EXTT12=
EXTT13=
EXTT14=
EXTT15=
EXTT16=
EXTT17=
EXTT18=
EXTT19=
PLAYORDER=
